<svg role="img" viewBox="0 0 24 24" xmlns="http://www.w3.org/2000/svg"><title>Tracebit</title><path transform="translate(1.0667 0) scale(0.533333)" d="M18.0557 19.7578L18.0625 19.248C18.0617 19.3093 18.0468 19.3699 18.0195 19.4248C17.9923 19.4797 17.9526 19.5277 17.9043 19.5654C17.856 19.6031 17.8 19.6294 17.7402 19.6426C17.683 19.6551 17.6236 19.6548 17.5664 19.6426L0.94043 15.7305L0 19.7178L17.2588 23.7793L16.79 23.6699C16.8478 23.6835 16.9025 23.7096 16.9492 23.7461C16.9959 23.7826 17.0344 23.8291 17.0615 23.8818C17.0886 23.9345 17.104 23.9926 17.1064 24.0518C17.1089 24.1109 17.0977 24.1698 17.0752 24.2246L10.8311 39.376L14.623 40.9355L17.3828 34.2402C17.4046 34.1874 17.4446 34.1441 17.4951 34.1172C17.5457 34.0903 17.6041 34.0813 17.6602 34.0928C17.7161 34.1043 17.7659 34.1353 17.8018 34.1797C17.8376 34.2242 17.8572 34.2798 17.8564 34.3369L17.7158 44.6201L21.8164 44.6758L22.0859 24.916L39.2012 28.9453L40.1416 24.958L23.3516 21.0049C23.2938 20.9913 23.2391 20.9652 23.1924 20.9287C23.1458 20.8922 23.1071 20.8465 23.0801 20.7939C23.053 20.7413 23.0377 20.6831 23.0352 20.624C23.0327 20.5648 23.0438 20.505 23.0664 20.4502L22.8828 20.8945L29.3096 5.2998L25.5176 3.74023L22.7588 10.4355L22.7139 10.5068C22.6949 10.5278 22.6718 10.5451 22.6465 10.5586C22.596 10.5854 22.5374 10.5935 22.4814 10.582C22.4257 10.5705 22.3756 10.5403 22.3398 10.4961C22.304 10.4515 22.2844 10.3951 22.2852 10.3379L22.2676 11.627L22.4248 0.0556641L18.3242 0L18.0557 19.7578ZM22.0791 25.4268C22.08 25.3655 22.0948 25.3049 22.1221 25.25C22.1494 25.1952 22.189 25.147 22.2373 25.1094C22.2856 25.0718 22.3416 25.0453 22.4014 25.0322C22.4612 25.0191 22.5234 25.0202 22.583 25.0342L22.0859 24.917L22.0791 25.4268Z"></path></svg>